<svg width="30" height="28" viewBox="0 0 30 28" fill="none" xmlns="http://www.w3.org/2000/svg">
<g filter="url(#filter0_d_174_718)">
<path fill-rule="evenodd" clip-rule="evenodd" d="M4.2501 9.0001C4.2501 6.37675 6.37675 4.2501 9.0001 4.2501H21.0001C23.6234 4.2501 25.7501 6.37675 25.7501 9.0001V15.0001C25.7501 17.6235 23.6234 19.7501 21.0001 19.7501H9.0001C6.37674 19.7501 4.2501 17.6235 4.2501 15.0001V9.0001ZM5.83706 8.2501H24.1631C23.8246 6.81675 22.5369 5.7501 21.0001 5.7501H9.0001C7.46331 5.7501 6.17565 6.81675 5.83706 8.2501ZM24.2501 9.7501H5.7501V15.0001C5.7501 16.795 7.20517 18.2501 9.0001 18.2501H21.0001C22.795 18.2501 24.2501 16.795 24.2501 15.0001V9.7501ZM16.2501 15.0001C16.2501 14.5859 16.5859 14.2501 17.0001 14.2501H21.0001C21.4143 14.2501 21.7501 14.5859 21.7501 15.0001C21.7501 15.4143 21.4143 15.7501 21.0001 15.7501H17.0001C16.5859 15.7501 16.2501 15.4143 16.2501 15.0001Z" fill="#3B5162"/>
</g>
<defs>
<filter id="filter0_d_174_718" x="-1" y="0" width="32" height="32" filterUnits="userSpaceOnUse" color-interpolation-filters="sRGB">
<feFlood flood-opacity="0" result="BackgroundImageFix"/>
<feColorMatrix in="SourceAlpha" type="matrix" values="0 0 0 0 0 0 0 0 0 0 0 0 0 0 0 0 0 0 127 0" result="hardAlpha"/>
<feOffset dy="4"/>
<feGaussianBlur stdDeviation="2"/>
<feComposite in2="hardAlpha" operator="out"/>
<feColorMatrix type="matrix" values="0 0 0 0 0 0 0 0 0 0 0 0 0 0 0 0 0 0 0.25 0"/>
<feBlend mode="normal" in2="BackgroundImageFix" result="effect1_dropShadow_174_718"/>
<feBlend mode="normal" in="SourceGraphic" in2="effect1_dropShadow_174_718" result="shape"/>
</filter>
</defs>
</svg>
